<svg xmlns="http://www.w3.org/2000/svg" fill="none" viewBox="0 0 96 66"><path fill="#000" fill-rule="evenodd" d="m87.7 11.2 8.2 34.4a2.3 2.3 0 0 1-.4 2 2.2 2.2 0 0 1-1.9 1h-6.5a19 19 0 0 1-18.7 16.7 19 19 0 0 1-18.7-16.7h-3.2c-1.1 9.5-9.2 17-18.9 17S9.8 58 8.7 48.5H2.4a2.2 2.2 0 0 1-2-1 2.3 2.3 0 0 1-.3-2l8.2-34.4A13 13 0 0 1 22 .5c.7 0 1.3.2 1.7.7a2.4 2.4 0 0 1 0 3.4c-.4.4-1 .7-1.7.7-7.6 0-8.8 6-8.9 6.7L5.4 43.7h3.3a19.1 19.1 0 0 1 19-16.7c9.6 0 17.6 7.3 18.8 16.7h3.2a19 19 0 0 1 18.7-16.5A19 19 0 0 1 87 43.8h3.4L83 12c-.1-.7-1.3-6.7-9-6.7-.6 0-1.2-.3-1.6-.7a2.4 2.4 0 0 1 0-3.4c.4-.5 1-.7 1.7-.7 9.5 0 13 6.9 13.6 10.7Zm-46 37.4a14.8 14.8 0 0 0 0-4.9c-1.1-6.8-7-12-14-12a14.4 14.4 0 0 0-14.3 16.8c1.1 7 7 12.3 14.2 12.3 7.2 0 13-5.3 14.2-12.2Zm40.7 0 .1-2.3c0-8-6.3-14.4-14.1-14.4a14.2 14.2 0 0 0-14 16.7c1.1 6.8 7 12 14 12s12.9-5.2 14-12Z" clip-rule="evenodd"/></svg>