<svg xmlns="http://www.w3.org/2000/svg" fill="none" viewBox="0 0 238 276"><path fill="#DEDEDE" d="m211.3 81.6 4.3-4.3c6.2-6.1 7.3-15.1 2.5-19.9-4.8-4.8-13.8-3.7-20 2.5l-4.2 4.3a118.3 118.3 0 0 0-59.7-25.6V31h6.1c8.7 0 15.9-7 15.9-15.5S149 0 140.3 0H97.7C89 0 82 7 82 15.5S89 31 97.7 31h6.1v7.6A119 119 0 0 0 1 141.8a119.3 119.3 0 0 0 150.8 129.6 119 119 0 0 0 59.6-189.8ZM119 245a87.9 87.9 0 0 1-86.3-105.3 88.2 88.2 0 0 1 120-64.2A88 88 0 0 1 119 245Z"/><circle cx="119" cy="157" r="93" stroke="#D22856" stroke-width="16"/><path fill="#D22856" d="M116 191H68v-10l17.2-17.5c5.1-5.2 8.4-8.8 10-10.8 1.5-2 2.7-3.9 3.4-5.6.7-1.7 1-3.5 1-5.4 0-2.7-.8-4.8-2.3-6.1a8.7 8.7 0 0 0-6-2c-2.7 0-5.3.6-7.8 1.8a40 40 0 0 0-7.8 5.2l-7.9-9.3c3.4-2.9 6.2-5 8.4-6.1a36.3 36.3 0 0 1 16-3.7c4.4 0 8.1.8 11.4 2.3A17.4 17.4 0 0 1 114 140c0 3.2-.6 6.2-1.7 9-1.1 2.7-2.8 5.5-5.2 8.4-2.3 3-6.4 7-12.2 12.5l-8.9 8.3v.6h30V191Zm56.3-14.2H164V191H150v-14.2h-29.3v-10l30-44.3H164v43h8.3v11.3Zm-22.4-11.3V154a215.7 215.7 0 0 1 .6-14.8h-.4c-1.1 2.5-2.5 5-4.1 7.5l-12.6 19h16.5Z"/></svg>